<svg width="30" height="28" viewBox="0 0 30 28" fill="none" xmlns="http://www.w3.org/2000/svg">
<g filter="url(#filter0_d_13_35)">
<path d="M25.6727 4.52558C24.9073 4.86475 24.0851 5.09392 23.2206 5.1975C24.1126 4.66381 24.7798 3.82384 25.098 2.83433C24.26 3.33207 23.3429 3.68243 22.3865 3.87017C21.7433 3.18346 20.8914 2.7283 19.9631 2.57535C19.0348 2.4224 18.0819 2.58022 17.2524 3.02431C16.423 3.4684 15.7633 4.17391 15.3759 5.03131C14.9885 5.88871 14.895 6.85002 15.11 7.766C13.412 7.68075 11.751 7.23942 10.2346 6.47066C8.71826 5.7019 7.38049 4.6229 6.30814 3.30367C5.94147 3.93617 5.73064 4.6695 5.73064 5.4505C5.73023 6.15358 5.90337 6.84589 6.23469 7.466C6.56602 8.08612 7.04528 8.61487 7.62997 9.00533C6.95189 8.98376 6.28877 8.80053 5.6958 8.47092V8.52592C5.69574 9.51201 6.03683 10.4678 6.66122 11.231C7.28561 11.9942 8.15483 12.5179 9.12139 12.7132C8.49236 12.8835 7.83286 12.9086 7.19272 12.7866C7.46543 13.6351 7.99663 14.377 8.71197 14.9086C9.42731 15.4402 10.291 15.7347 11.1821 15.7511C9.6694 16.9385 7.80128 17.5827 5.87822 17.5798C5.53757 17.5799 5.19721 17.56 4.85889 17.5202C6.81091 18.7753 9.0832 19.4414 11.4039 19.4388C19.2597 19.4388 23.5543 12.9323 23.5543 7.28933C23.5543 7.106 23.5497 6.92083 23.5415 6.7375C24.3768 6.13339 25.0979 5.38532 25.6709 4.52833L25.6727 4.52558Z" fill="white"/>
</g>
<defs>
<filter id="filter0_d_13_35" x="0" y="0" width="30" height="30" filterUnits="userSpaceOnUse" color-interpolation-filters="sRGB">
<feFlood flood-opacity="0" result="BackgroundImageFix"/>
<feColorMatrix in="SourceAlpha" type="matrix" values="0 0 0 0 0 0 0 0 0 0 0 0 0 0 0 0 0 0 127 0" result="hardAlpha"/>
<feOffset dy="4"/>
<feGaussianBlur stdDeviation="2"/>
<feComposite in2="hardAlpha" operator="out"/>
<feColorMatrix type="matrix" values="0 0 0 0 0 0 0 0 0 0 0 0 0 0 0 0 0 0 0.25 0"/>
<feBlend mode="normal" in2="BackgroundImageFix" result="effect1_dropShadow_13_35"/>
<feBlend mode="normal" in="SourceGraphic" in2="effect1_dropShadow_13_35" result="shape"/>
</filter>
</defs>
</svg>
