<svg width="28" height="28" viewBox="0 0 28 28" fill="none" xmlns="http://www.w3.org/2000/svg">
<path d="M28 13.9095C28 13.8384 28 13.7576 27.9969 13.6639C27.9938 13.4021 27.9875 13.108 27.9813 12.7946C27.9563 11.8929 27.9125 10.9945 27.8438 10.1477C27.75 8.98107 27.6125 8.00831 27.425 7.27793C27.2271 6.51572 26.8393 5.82056 26.3002 5.26195C25.7612 4.70333 25.0898 4.30082 24.3531 4.09464C23.4688 3.84903 21.7375 3.69714 19.3 3.60342C18.1406 3.55817 16.9 3.52909 15.6594 3.51293C15.225 3.50646 14.8219 3.50323 14.4594 3.5H13.5406C13.1781 3.50323 12.775 3.50646 12.3406 3.51293C11.1 3.52909 9.85938 3.55817 8.7 3.60342C6.2625 3.70037 4.52812 3.85226 3.64687 4.09464C2.91 4.30031 2.23834 4.70265 1.6992 5.26135C1.16006 5.82004 0.772375 6.51547 0.575 7.27793C0.384375 8.00831 0.25 8.98107 0.15625 10.1477C0.0875 10.9945 0.04375 11.8929 0.01875 12.7946C0.00937495 13.108 0.00624995 13.4021 0.00312495 13.6639C0.00312495 13.7576 0 13.8384 0 13.9095V14.0905C0 14.1616 -4.77303e-08 14.2424 0.00312495 14.3361C0.00624995 14.5979 0.0125 14.892 0.01875 15.2054C0.04375 16.1071 0.0875 17.0055 0.15625 17.8523C0.25 19.0189 0.3875 19.9917 0.575 20.7221C0.975 22.2701 2.15 23.4917 3.64687 23.9054C4.52812 24.151 6.2625 24.3029 8.7 24.3966C9.85938 24.4418 11.1 24.4709 12.3406 24.4871C12.775 24.4935 13.1781 24.4968 13.5406 24.5H14.4594C14.8219 24.4968 15.225 24.4935 15.6594 24.4871C16.9 24.4709 18.1406 24.4418 19.3 24.3966C21.7375 24.2996 23.4719 24.1477 24.3531 23.9054C25.85 23.4917 27.025 22.2733 27.425 20.7221C27.6156 19.9917 27.75 19.0189 27.8438 17.8523C27.9125 17.0055 27.9563 16.1071 27.9813 15.2054C27.9906 14.892 27.9938 14.5979 27.9969 14.3361C27.9969 14.2424 28 14.1616 28 14.0905V13.9095ZM25.75 14.0776C25.75 14.1454 25.75 14.2198 25.7469 14.307C25.7438 14.5591 25.7375 14.837 25.7313 15.1376C25.7094 15.9972 25.6656 16.8569 25.6 17.6551C25.5156 18.6958 25.3969 19.5489 25.25 20.121C25.0562 20.8675 24.4875 21.4589 23.7687 21.656C23.1125 21.837 21.4594 21.9825 19.2125 22.0697C18.075 22.115 16.85 22.144 15.6281 22.1602C15.2 22.1667 14.8031 22.1699 14.4469 22.1699H13.5531L12.3719 22.1602C11.15 22.144 9.92813 22.115 8.7875 22.0697C6.54063 21.9792 4.88437 21.837 4.23125 21.656C3.5125 21.4557 2.94375 20.8675 2.75 20.121C2.60313 19.5489 2.48438 18.6958 2.4 17.6551C2.33438 16.8569 2.29375 15.9972 2.26875 15.1376C2.25938 14.837 2.25625 14.5559 2.25313 14.307C2.25313 14.2198 2.25 14.1422 2.25 14.0776V13.9224C2.25 13.8546 2.25 13.7802 2.25313 13.693C2.25625 13.4409 2.2625 13.163 2.26875 12.8624C2.29063 12.0028 2.33438 11.1431 2.4 10.3449C2.48438 9.30425 2.60313 8.45106 2.75 7.87904C2.94375 7.1325 3.5125 6.54109 4.23125 6.34395C4.8875 6.16297 6.54063 6.01754 8.7875 5.93029C9.925 5.88504 11.15 5.85596 12.3719 5.8398C12.8 5.83333 13.1969 5.8301 13.5531 5.8301H14.4469L15.6281 5.8398C16.85 5.85596 18.0719 5.88504 19.2125 5.93029C21.4594 6.02077 23.1156 6.16297 23.7687 6.34395C24.4875 6.54432 25.0562 7.1325 25.25 7.87904C25.3969 8.45106 25.5156 9.30425 25.6 10.3449C25.6656 11.1431 25.7063 12.0028 25.7313 12.8624C25.7406 13.163 25.7438 13.4441 25.7469 13.693C25.7469 13.7802 25.75 13.8578 25.75 13.9224V14.0776ZM11.2188 18.3306L18.4688 13.9677L11.2188 9.66944V18.3306Z" fill="white"/>
</svg>
