<svg width="43" height="42" viewBox="0 0 43 42" fill="none" xmlns="http://www.w3.org/2000/svg">
<path d="M21.3333 2.57719C17.1311 2.57682 13.0532 3.95472 9.76665 6.48548C9.62367 6.45976 9.47873 6.44553 9.33331 6.44296C8.62607 6.44296 7.94779 6.71448 7.4477 7.1978C6.9476 7.68111 6.66665 8.33663 6.66665 9.02014C6.66932 9.16067 6.68404 9.30075 6.71065 9.43893C4.09669 12.642 2.68451 16.6075 2.70499 20.6869C2.72547 24.7662 4.17741 28.7182 6.82341 31.8967C9.4694 35.0751 13.1529 37.292 17.2717 38.1847C21.3904 39.0775 25.7007 38.5934 29.4979 36.8116C33.295 35.0298 36.3544 32.0556 38.1756 28.3755C39.9969 24.6953 40.4724 20.5268 39.5243 16.5516C38.5763 12.5764 36.2608 9.02966 32.9564 6.49124C29.6521 3.95282 25.5544 2.57293 21.3333 2.57719ZM21.3333 36.0805C18.372 36.086 15.4675 35.2955 12.9442 33.7975C10.421 32.2995 8.37841 30.1529 7.04478 27.5976C5.71115 25.0423 5.13897 22.1789 5.39218 19.3275C5.64539 16.476 6.71402 13.7487 8.47865 11.4504C8.97196 11.6273 9.51118 11.6453 10.016 11.502L11.9666 13.3872C10.1895 15.5266 9.25611 18.2064 9.33284 20.949C9.40956 23.6915 10.4914 26.3186 12.3856 28.3622C14.2798 30.4057 16.8632 31.7328 19.6755 32.1071C22.4877 32.4813 25.3462 31.8783 27.7413 30.4056C28.2527 30.7786 28.8864 30.9604 29.5256 30.9175C30.1648 30.8745 30.7664 30.6097 31.2194 30.1718C31.6725 29.734 31.9465 29.1526 31.991 28.5349C32.0354 27.9171 31.8473 27.3047 31.4613 26.8104C32.6834 24.9608 33.3327 22.812 33.3327 20.6175C33.3327 18.4229 32.6834 16.2741 31.4613 14.4245C31.8473 13.9302 32.0354 13.3178 31.991 12.7001C31.9465 12.0823 31.6725 11.5009 31.2194 11.0631C30.7664 10.6252 30.1648 10.3604 29.5256 10.3174C28.8864 10.2745 28.2527 10.4563 27.7413 10.8293C25.6376 9.5321 23.1658 8.90535 20.6741 9.03735C18.1824 9.16935 15.7964 10.0534 13.852 11.5651L11.9013 9.6799C12.0498 9.19205 12.031 8.67089 11.848 8.19416C13.8826 6.74303 16.2444 5.77897 18.7393 5.38113C21.2343 4.98329 23.7913 5.16301 26.2004 5.90554C28.6096 6.64806 30.8022 7.93222 32.5981 9.65258C34.3941 11.3729 35.7423 13.4804 36.532 15.8021C37.3216 18.1237 37.5303 20.5932 37.1408 23.0079C36.7513 25.4225 35.7748 27.7135 34.2914 29.6927C32.8081 31.6718 30.8601 33.2828 28.6075 34.3932C26.355 35.5036 23.862 36.0819 21.3333 36.0805ZM21.3333 18.0403C21.8607 18.0403 22.3763 18.1914 22.8148 18.4746C23.2534 18.7578 23.5952 19.1603 23.797 19.6312C23.9988 20.1021 24.0516 20.6203 23.9487 21.1202C23.8458 21.6202 23.5919 22.0794 23.2189 22.4398C22.846 22.8002 22.3708 23.0457 21.8536 23.1451C21.3363 23.2446 20.8001 23.1935 20.3128 22.9985C19.8256 22.8034 19.4091 22.4731 19.1161 22.0493C18.823 21.6254 18.6666 21.1272 18.6666 20.6175C18.6674 19.9342 18.9485 19.279 19.4485 18.7959C19.9484 18.3127 20.6263 18.041 21.3333 18.0403ZM25.9106 18.0158L28.6506 15.3677C28.7503 15.3926 28.8514 15.4119 28.9533 15.4257C30.0682 16.9425 30.6672 18.7569 30.6672 20.6175C30.6672 22.478 30.0682 24.2924 28.9533 25.8092C28.8514 25.823 28.7503 25.8423 28.6506 25.8672L25.9106 23.2191C26.405 22.4354 26.6665 21.5353 26.6665 20.6175C26.6665 19.6996 26.405 18.7995 25.9106 18.0158ZM26.7053 13.2532C26.7195 13.3517 26.7395 13.4494 26.7653 13.5457L24.0253 16.1937C23.2144 15.716 22.283 15.4633 21.3333 15.4633C20.3836 15.4633 19.4522 15.716 18.6413 16.1937L15.7546 13.4013C17.3269 12.2555 19.2358 11.6234 21.2047 11.5965C23.1736 11.5696 25.1003 12.1494 26.7053 13.2519V13.2532ZM16.756 18.0158C16.2661 18.8014 16.0049 19.7003 16 20.6175C16.0017 21.984 16.5642 23.294 17.564 24.2603C18.5638 25.2265 19.9194 25.7701 21.3333 25.7718C22.2824 25.767 23.2124 25.5146 24.0253 25.0412L26.7653 27.6892C26.7395 27.7855 26.7195 27.8832 26.7053 27.9818C24.8924 29.2238 22.6798 29.7988 20.4669 29.6029C18.2539 29.407 16.1862 28.4531 14.637 26.9134C13.0877 25.3737 12.1589 23.3495 12.0182 21.2061C11.8774 19.0628 12.5339 16.9414 13.8693 15.2247L16.756 18.0158Z" fill="white"/>
</svg>
