<svg width="429" height="66" viewBox="0 0 429 66" fill="none" xmlns="http://www.w3.org/2000/svg">
<path d="M19.584 50.672C13.536 50.672 8.864 49.136 5.568 46.064C2.304 42.992 0.672 38.08 0.672 31.328C0.672 18.432 6.944 11.984 19.488 11.984C22.528 11.984 25.344 12.352 27.936 13.088C30.56 13.824 32.512 14.64 33.792 15.536V27.536H22.272V24.08C22.272 22.864 22 21.968 21.456 21.392C20.912 20.816 20.096 20.528 19.008 20.528C17.92 20.528 17.104 20.816 16.56 21.392C16.016 21.968 15.744 22.864 15.744 24.08V38.576C15.744 39.792 16.016 40.688 16.56 41.264C17.104 41.84 17.92 42.128 19.008 42.128C20.096 42.128 20.912 41.84 21.456 41.264C22 40.688 22.272 39.792 22.272 38.576V34.688H33.792V47.12C32.48 48.016 30.528 48.832 27.936 49.568C25.376 50.304 22.592 50.672 19.584 50.672ZM35.6006 50V42.128H38.0006V20.528H35.6006V12.656H55.8566V20.528H51.4406V42.128H55.7606V37.712H65.3126V50H35.6006ZM83.4589 50.672C78.4349 50.672 74.5469 49.568 71.7949 47.36C69.0749 45.152 67.7149 41.568 67.7149 36.608V20.528H65.3149V12.656H83.0749V20.528H81.1549V39.056C81.1549 40.112 81.3789 40.896 81.8269 41.408C82.3069 41.888 83.0109 42.128 83.9389 42.128C84.8669 42.128 85.5549 41.888 86.0029 41.408C86.4829 40.896 86.7229 40.112 86.7229 39.056V20.528H84.8029V12.656H101.267V20.528H98.8669V36.608C98.8669 41.568 97.5389 45.152 94.8829 47.36C92.2269 49.568 88.4189 50.672 83.4589 50.672ZM155.951 20.528H153.551V42.128H155.951V50H137.807V42.128H140.111V25.328L131.951 50H124.847L116.447 25.568V42.128H118.751V50H103.007V42.128H105.407V20.528H103.007V12.656H124.991L129.983 27.632L134.783 12.656H155.951V20.528ZM157.851 42.128H160.251V20.528H157.851V12.656H179.883C183.883 12.656 187.003 13.472 189.243 15.104C191.483 16.736 192.603 19.072 192.603 22.112C192.603 24 192.155 25.6 191.259 26.912C190.363 28.192 189.307 29.168 188.091 29.84C186.907 30.48 185.755 30.912 184.635 31.136V31.616C186.907 31.84 188.955 32.56 190.779 33.776C192.603 34.992 193.515 37.168 193.515 40.304C193.515 43.664 192.251 46.128 189.723 47.696C187.195 49.232 183.915 50 179.883 50H157.851V42.128ZM176.283 28.4C177.211 28.4 177.899 28.16 178.347 27.68C178.827 27.168 179.067 26.384 179.067 25.328V23.6C179.067 22.544 178.827 21.776 178.347 21.296C177.899 20.784 177.211 20.528 176.283 20.528H173.691V28.4H176.283ZM176.619 42.128C177.547 42.128 178.235 41.888 178.683 41.408C179.163 40.896 179.403 40.112 179.403 39.056V36.944C179.403 35.888 179.163 35.12 178.683 34.64C178.235 34.128 177.547 33.872 176.619 33.872H173.691V42.128H176.619ZM195.069 50V42.128H197.469V20.528H195.069V12.656H227.469V27.152H216.717V20.528H210.909V28.112H215.133V33.584H210.909V42.128H216.717V34.544H227.469V50H195.069ZM229.288 42.128H231.688V20.528H229.288V12.656H251.32C255.448 12.656 258.6 13.504 260.776 15.2C262.952 16.896 264.04 19.648 264.04 23.456C264.04 25.6 263.608 27.456 262.744 29.024C261.88 30.592 260.648 31.68 259.048 32.288L259.096 32.768C262.168 33.248 263.704 35.136 263.704 38.432V42.128H265.96V50H250.744V38.72C250.744 37.472 250.552 36.528 250.168 35.888C249.816 35.248 249.24 34.816 248.44 34.592C247.672 34.368 246.568 34.256 245.128 34.256V42.128H248.296V50H229.288V42.128ZM247.72 28.4C248.648 28.4 249.336 28.16 249.784 27.68C250.264 27.168 250.504 26.384 250.504 25.328V23.6C250.504 22.544 250.264 21.776 249.784 21.296C249.336 20.784 248.648 20.528 247.72 20.528H245.128V28.4H247.72Z" fill="white"/>
<path d="M279.96 50H278.96V51H279.96V50ZM279.96 42.128V41.128H278.96V42.128H279.96ZM282.36 42.128V43.128H283.36V42.128H282.36ZM282.36 20.528H283.36V19.528H282.36V20.528ZM279.96 20.528H278.96V21.528H279.96V20.528ZM279.96 12.656V11.656H278.96V12.656H279.96ZM300.216 12.656H301.216V11.656H300.216V12.656ZM300.216 20.528V21.528H301.216V20.528H300.216ZM295.8 20.528V19.528H294.8V20.528H295.8ZM295.8 42.128H294.8V43.128H295.8V42.128ZM300.12 42.128V43.128H301.12V42.128H300.12ZM300.12 37.712V36.712H299.12V37.712H300.12ZM309.672 37.712H310.672V36.712H309.672V37.712ZM309.672 50V51H310.672V50H309.672ZM280.96 50V42.128H278.96V50H280.96ZM279.96 43.128H282.36V41.128H279.96V43.128ZM283.36 42.128V20.528H281.36V42.128H283.36ZM282.36 19.528H279.96V21.528H282.36V19.528ZM280.96 20.528V12.656H278.96V20.528H280.96ZM279.96 13.656H300.216V11.656H279.96V13.656ZM299.216 12.656V20.528H301.216V12.656H299.216ZM300.216 19.528H295.8V21.528H300.216V19.528ZM294.8 20.528V42.128H296.8V20.528H294.8ZM295.8 43.128H300.12V41.128H295.8V43.128ZM301.12 42.128V37.712H299.12V42.128H301.12ZM300.12 38.712H309.672V36.712H300.12V38.712ZM308.672 37.712V50H310.672V37.712H308.672ZM309.672 49H279.96V51H309.672V49ZM346.551 42.128L345.587 42.3934L345.789 43.128H346.551V42.128ZM348.471 42.128H349.471V41.128H348.471V42.128ZM348.471 50V51H349.471V50H348.471ZM329.655 50H328.655V51H329.655V50ZM329.655 42.128V41.128H328.655V42.128H329.655ZM332.535 42.128V43.128H333.755L333.516 41.9319L332.535 42.128ZM331.767 38.288L332.748 38.0919L332.587 37.288H331.767V38.288ZM325.239 38.288V37.288H324.42L324.259 38.0919L325.239 38.288ZM324.471 42.128L323.491 41.9319L323.252 43.128H324.471V42.128ZM327.351 42.128H328.351V41.128H327.351V42.128ZM327.351 50V51H328.351V50H327.351ZM310.935 50H309.935V51H310.935V50ZM310.935 42.128V41.128H309.935V42.128H310.935ZM312.855 42.128V43.128H313.617L313.82 42.3934L312.855 42.128ZM320.967 12.656V11.656H320.205L320.003 12.3906L320.967 12.656ZM338.439 12.656L339.404 12.3906L339.201 11.656H338.439V12.656ZM326.295 33.2L325.316 32.9982L325.068 34.2H326.295V33.2ZM330.711 33.2V34.2H331.938L331.691 32.9982L330.711 33.2ZM328.743 23.648L329.723 23.4462L329.558 22.648H328.743V23.648ZM328.263 23.648V22.648H327.448L327.284 23.4462L328.263 23.648ZM346.551 43.128H348.471V41.128H346.551V43.128ZM347.471 42.128V50H349.471V42.128H347.471ZM348.471 49H329.655V51H348.471V49ZM330.655 50V42.128H328.655V50H330.655ZM329.655 43.128H332.535V41.128H329.655V43.128ZM333.516 41.9319L332.748 38.0919L330.787 38.4841L331.555 42.3241L333.516 41.9319ZM331.767 37.288H325.239V39.288H331.767V37.288ZM324.259 38.0919L323.491 41.9319L325.452 42.3241L326.22 38.4841L324.259 38.0919ZM324.471 43.128H327.351V41.128H324.471V43.128ZM326.351 42.128V50H328.351V42.128H326.351ZM327.351 49H310.935V51H327.351V49ZM311.935 50V42.128H309.935V50H311.935ZM310.935 43.128H312.855V41.128H310.935V43.128ZM313.82 42.3934L321.932 12.9214L320.003 12.3906L311.891 41.8626L313.82 42.3934ZM320.967 13.656H338.439V11.656H320.967V13.656ZM337.475 12.9214L345.587 42.3934L347.516 41.8626L339.404 12.3906L337.475 12.9214ZM326.295 34.2H330.711V32.2H326.295V34.2ZM331.691 32.9982L329.723 23.4462L327.764 23.8498L329.732 33.4018L331.691 32.9982ZM328.743 22.648H328.263V24.648H328.743V22.648ZM327.284 23.4462L325.316 32.9982L327.275 33.4018L329.243 23.8498L327.284 23.4462ZM377.639 12.656V11.656H376.639V12.656H377.639ZM393.383 12.656H394.383V11.656H393.383V12.656ZM393.383 20.528V21.528H394.383V20.528H393.383ZM390.983 20.528V19.528H389.983V20.528H390.983ZM390.983 50V51H391.983V50H390.983ZM377.495 50L376.657 50.5448L376.952 51H377.495V50ZM363.431 28.352L364.27 27.8072L362.431 24.9772V28.352H363.431ZM363.431 42.128H362.431V43.128H363.431V42.128ZM365.735 42.128H366.735V41.128H365.735V42.128ZM365.735 50V51H366.735V50H365.735ZM349.991 50H348.991V51H349.991V50ZM349.991 42.128V41.128H348.991V42.128H349.991ZM352.391 42.128V43.128H353.391V42.128H352.391ZM352.391 20.528H353.391V19.528H352.391V20.528ZM349.991 20.528H348.991V21.528H349.991V20.528ZM349.991 12.656V11.656H348.991V12.656H349.991ZM367.319 12.656L368.155 12.1076L367.859 11.656H367.319V12.656ZM379.943 31.904L379.107 32.4524L380.943 35.2521V31.904H379.943ZM379.943 20.528H380.943V19.528H379.943V20.528ZM377.639 20.528H376.639V21.528H377.639V20.528ZM377.639 13.656H393.383V11.656H377.639V13.656ZM392.383 12.656V20.528H394.383V12.656H392.383ZM393.383 19.528H390.983V21.528H393.383V19.528ZM389.983 20.528V50H391.983V20.528H389.983ZM390.983 49H377.495V51H390.983V49ZM378.334 49.4552L364.27 27.8072L362.593 28.8968L376.657 50.5448L378.334 49.4552ZM362.431 28.352V42.128H364.431V28.352H362.431ZM363.431 43.128H365.735V41.128H363.431V43.128ZM364.735 42.128V50H366.735V42.128H364.735ZM365.735 49H349.991V51H365.735V49ZM350.991 50V42.128H348.991V50H350.991ZM349.991 43.128H352.391V41.128H349.991V43.128ZM353.391 42.128V20.528H351.391V42.128H353.391ZM352.391 19.528H349.991V21.528H352.391V19.528ZM350.991 20.528V12.656H348.991V20.528H350.991ZM349.991 13.656H367.319V11.656H349.991V13.656ZM366.483 13.2044L379.107 32.4524L380.779 31.3556L368.155 12.1076L366.483 13.2044ZM380.943 31.904V20.528H378.943V31.904H380.943ZM379.943 19.528H377.639V21.528H379.943V19.528ZM378.639 20.528V12.656H376.639V20.528H378.639ZM395.226 50H394.226V51H395.226V50ZM395.226 42.128V41.128H394.226V42.128H395.226ZM397.626 42.128V43.128H398.626V42.128H397.626ZM397.626 20.528H398.626V19.528H397.626V20.528ZM395.226 20.528H394.226V21.528H395.226V20.528ZM395.226 12.656V11.656H394.226V12.656H395.226ZM427.626 12.656H428.626V11.656H427.626V12.656ZM427.626 27.152V28.152H428.626V27.152H427.626ZM416.874 27.152H415.874V28.152H416.874V27.152ZM416.874 20.528H417.874V19.528H416.874V20.528ZM411.066 20.528V19.528H410.066V20.528H411.066ZM411.066 28.112H410.066V29.112H411.066V28.112ZM415.29 28.112H416.29V27.112H415.29V28.112ZM415.29 33.584V34.584H416.29V33.584H415.29ZM411.066 33.584V32.584H410.066V33.584H411.066ZM411.066 42.128H410.066V43.128H411.066V42.128ZM416.874 42.128V43.128H417.874V42.128H416.874ZM416.874 34.544V33.544H415.874V34.544H416.874ZM427.626 34.544H428.626V33.544H427.626V34.544ZM427.626 50V51H428.626V50H427.626ZM396.226 50V42.128H394.226V50H396.226ZM395.226 43.128H397.626V41.128H395.226V43.128ZM398.626 42.128V20.528H396.626V42.128H398.626ZM397.626 19.528H395.226V21.528H397.626V19.528ZM396.226 20.528V12.656H394.226V20.528H396.226ZM395.226 13.656H427.626V11.656H395.226V13.656ZM426.626 12.656V27.152H428.626V12.656H426.626ZM427.626 26.152H416.874V28.152H427.626V26.152ZM417.874 27.152V20.528H415.874V27.152H417.874ZM416.874 19.528H411.066V21.528H416.874V19.528ZM410.066 20.528V28.112H412.066V20.528H410.066ZM411.066 29.112H415.29V27.112H411.066V29.112ZM414.29 28.112V33.584H416.29V28.112H414.29ZM415.29 32.584H411.066V34.584H415.29V32.584ZM410.066 33.584V42.128H412.066V33.584H410.066ZM411.066 43.128H416.874V41.128H411.066V43.128ZM417.874 42.128V34.544H415.874V42.128H417.874ZM416.874 35.544H427.626V33.544H416.874V35.544ZM426.626 34.544V50H428.626V34.544H426.626ZM427.626 49H395.226V51H427.626V49Z" fill="white"/>
</svg>
